<svg width="19" height="19" viewBox="0 0 19 19" fill="none" xmlns="http://www.w3.org/2000/svg">
<path d="M18.7499 15.6161V15.612C18.7499 15.612 15.1566 12.0228 15.1544 12.021C14.8695 11.736 14.4138 11.7422 14.1336 12.0229L12.4796 13.6837C11.8366 14.3269 11.0074 13.7562 9.4159 12.4584C8.36292 11.5998 7.1514 10.4452 6.10096 9.14349C5.36378 8.23018 4.71188 7.27105 5.38534 6.59776C5.38708 6.59601 7.04614 4.94124 7.04582 4.93949L7.04709 4.936C7.34481 4.63828 7.31596 4.18218 7.04408 3.90997V3.90585C7.04408 3.90585 3.34691 0.213279 3.34485 0.21106C3.05996 -0.0738259 2.60449 -0.0674845 2.32405 0.212962L0.657855 1.87915C-0.0285969 2.73825 -1.55417 6.8327 4.98615 13.5368C11.876 20.5996 16.322 19.0888 17.0874 18.2919C17.0874 18.2919 18.7518 16.6471 18.7518 16.6455L18.7532 16.6421C19.051 16.3443 19.0216 15.8885 18.7499 15.6161Z" fill="white"/>
</svg>
