<svg width="29" height="19" viewBox="0 0 29 19" fill="none" xmlns="http://www.w3.org/2000/svg">
<path d="M0 17.3171V1.68286C0 1.66476 0.0279653 1.49286 0.0838958 1.16714L9.56413 9.03857L0.111861 17.86C0.037287 17.6067 0 17.4257 0 17.3171ZM1.25844 0.0814285C1.38894 0.0271428 1.54741 0 1.73385 0H27.2662C27.4339 0 27.6017 0.0271428 27.7695 0.0814285L18.2613 7.98L17.0029 8.95714L14.514 10.9386L12.0251 8.95714L10.7666 7.98L1.25844 0.0814285ZM1.2864 18.9186L10.8226 10.0429L14.514 12.9471L18.2054 10.0429L27.7416 18.9186C27.5924 18.9729 27.4339 19 27.2662 19H1.73385C1.5847 19 1.43555 18.9729 1.2864 18.9186ZM19.4638 9.03857L28.9161 1.16714C28.972 1.33 29 1.5019 29 1.68286V17.3171C29 17.48 28.972 17.661 28.9161 17.86L19.4638 9.03857Z" fill="white"/>
</svg>
