<svg width="30" height="33" viewBox="0 0 30 33" fill="none" xmlns="http://www.w3.org/2000/svg">
<path d="M6.57776 14.8H9.86665V18.0889H6.57776V14.8ZM6.57776 21.3778H9.86665V24.6667H6.57776V21.3778ZM13.1555 14.8H16.4444V18.0889H13.1555V14.8ZM13.1555 21.3778H16.4444V24.6667H13.1555V21.3778ZM19.7333 14.8H23.0222V18.0889H19.7333V14.8ZM19.7333 21.3778H23.0222V24.6667H19.7333V21.3778Z" fill="white"/>
<path d="M3.28889 32.8889H26.3111C28.1249 32.8889 29.6 31.4138 29.6 29.6V9.86667V6.57778C29.6 4.76396 28.1249 3.28889 26.3111 3.28889H23.0222V0H19.7333V3.28889H9.86667V0H6.57778V3.28889H3.28889C1.47507 3.28889 0 4.76396 0 6.57778V9.86667V29.6C0 31.4138 1.47507 32.8889 3.28889 32.8889ZM26.3111 9.86667L26.3128 29.6H3.28889V9.86667H26.3111Z" fill="white"/>
</svg>
