<svg width="19" height="19" viewBox="0 0 19 19" fill="none" xmlns="http://www.w3.org/2000/svg">
<path d="M15.0417 7.12504C15.0417 4.06446 12.5606 1.58337 9.5 1.58337C6.43942 1.58337 3.95834 4.06446 3.95834 7.12504C3.95834 8.22308 4.28292 9.24433 4.83313 10.1057H4.82679C6.69513 13.0309 9.5 17.4167 9.5 17.4167L14.1732 10.1057H14.1677C14.7171 9.24433 15.0417 8.22308 15.0417 7.12504ZM9.5 9.50004C8.18821 9.50004 7.125 8.43683 7.125 7.12504C7.125 5.81325 8.18821 4.75004 9.5 4.75004C10.8118 4.75004 11.875 5.81325 11.875 7.12504C11.875 8.43683 10.8118 9.50004 9.5 9.50004Z" fill="white"/>
</svg>
