<svg width="122" height="51" viewBox="0 0 122 51" fill="none" xmlns="http://www.w3.org/2000/svg">
<circle cx="25.5" cy="25.5" r="25.5" fill="#F2E6D8"/>
<path d="M25.1559 42.4114C34.1681 42.4114 41.4739 35.1056 41.4739 26.0934C41.4739 17.0812 34.1681 9.77542 25.1559 9.77542C16.1438 9.77542 8.83795 17.0812 8.83795 26.0934C8.83795 35.1056 16.1438 42.4114 25.1559 42.4114Z" fill="#E5EFEF"/>
<path d="M8.83795 6.9375V8.35646" stroke="#4C241D" stroke-linecap="round" stroke-linejoin="round"/>
<path d="M8.83795 11.1944V12.6133" stroke="#4C241D" stroke-linecap="round" stroke-linejoin="round"/>
<path d="M6 9.77542H7.41896" stroke="#4C241D" stroke-linecap="round" stroke-linejoin="round"/>
<path d="M10.2569 9.77542H11.6759" stroke="#4C241D" stroke-linecap="round" stroke-linejoin="round"/>
<path d="M41.1192 26.0934C42.0987 26.0934 42.8928 25.2993 42.8928 24.3197C42.8928 23.3401 42.0987 22.546 41.1192 22.546C40.1396 22.546 39.3455 23.3401 39.3455 24.3197C39.3455 25.2993 40.1396 26.0934 41.1192 26.0934Z" stroke="#4C241D" stroke-linecap="round" stroke-linejoin="round"/>
<path d="M8.1866 21.6003C8.18688 21.7503 8.14264 21.8971 8.05947 22.022C7.97631 22.1469 7.85795 22.2444 7.71939 22.302C7.58083 22.3596 7.42829 22.3748 7.28108 22.3457C7.13386 22.3166 6.99859 22.2445 6.89238 22.1385C6.78617 22.0325 6.7138 21.8973 6.68442 21.7502C6.65504 21.603 6.66997 21.4505 6.72734 21.3118C6.7847 21.1731 6.88191 21.0546 7.00666 20.9712C7.13141 20.8878 7.27811 20.8433 7.42817 20.8433C7.62901 20.8434 7.8216 20.9232 7.96375 21.0651C8.10591 21.207 8.18604 21.3994 8.1866 21.6003V21.6003Z" fill="#4C241D"/>
<path d="M43 37.8707C43 38.0207 42.9555 38.1674 42.8722 38.2921C42.7889 38.4168 42.6704 38.514 42.5318 38.5714C42.3932 38.6288 42.2407 38.6439 42.0936 38.6146C41.9465 38.5853 41.8114 38.5131 41.7053 38.407C41.5992 38.301 41.527 38.1658 41.4977 38.0187C41.4685 37.8716 41.4835 37.7191 41.5409 37.5805C41.5983 37.4419 41.6955 37.3235 41.8202 37.2401C41.9449 37.1568 42.0916 37.1123 42.2416 37.1123C42.4427 37.1123 42.6356 37.1922 42.7779 37.3344C42.9201 37.4767 43 37.6696 43 37.8707V37.8707Z" fill="#4C241D"/>
<path d="M17.1842 22.9554C16.4183 23.2363 15.7569 23.7452 15.289 24.4134C14.821 25.0816 14.5691 25.8771 14.5669 26.6929C14.5556 28.4162 14.5506 30.3822 14.5506 30.6447C14.5506 37.8707 18.8465 43.7289 24.1456 43.7289C29.4447 43.7289 33.7405 37.8707 33.7405 30.6447C33.7405 30.3857 33.7349 28.4141 33.7242 26.6901C33.7221 25.8741 33.4699 25.0784 33.0017 24.4101C32.5335 23.7419 31.8717 23.2332 31.1056 22.9525C26.6149 21.2838 21.6741 21.2849 17.1842 22.9554V22.9554Z" fill="white" stroke="#4C241D" stroke-linecap="round" stroke-linejoin="round"/>
<path d="M25.1062 37.2762C25.1566 36.9058 25.8866 36.5255 26.3528 36.588L27.7008 36.7703C27.9237 36.7998 28.1493 36.7399 28.3282 36.6036C28.5071 36.4674 28.6249 36.2659 28.6557 36.0431" stroke="#4C241D" stroke-linecap="round" stroke-linejoin="round"/>
<path d="M23.0772 37.2762C23.0268 36.9058 22.2968 36.5255 21.8307 36.588L20.4826 36.7703C20.2596 36.8 20.0338 36.7402 19.8548 36.6039C19.6757 36.4676 19.5578 36.266 19.527 36.0431" stroke="#4C241D" stroke-linecap="round" stroke-linejoin="round"/>
<path d="M25.7944 19.9607L28.3188 20.1551C29.2682 20.2282 30.1917 20.4992 31.0301 20.9508C31.8685 21.4023 32.6031 22.0242 33.1867 22.7767C33.7702 23.5291 34.1899 24.3954 34.4186 25.3197C34.6473 26.244 34.68 27.206 34.5146 28.1438L33.6256 33.1811C33.5927 33.3671 33.4952 33.5356 33.3505 33.657C33.2057 33.7785 33.0228 33.845 32.8339 33.8451C32.7231 33.8452 32.6135 33.8223 32.512 33.778C32.4104 33.7336 32.3192 33.6688 32.2439 33.5875C32.1686 33.5063 32.1109 33.4103 32.0745 33.3057C32.0381 33.2011 32.0237 33.09 32.0322 32.9796L32.3713 28.5709C32.4727 27.2515 32.0947 25.9398 31.3069 24.8766C30.5191 23.8134 29.3742 23.0701 28.0825 22.783L25.7944 22.275V19.9607Z" fill="#BF7E68" stroke="#4C241D" stroke-linecap="round" stroke-linejoin="round"/>
<path d="M28.1108 20.7326C28.1108 20.7326 25.761 27.1576 16.5399 25.8805L15.8489 32.3269C15.8268 32.5328 15.7294 32.7233 15.5754 32.8617C15.4214 33.0001 15.2216 33.0767 15.0146 33.0768C14.801 33.0768 14.5955 32.9955 14.4398 32.8493C14.2841 32.7031 14.19 32.5031 14.1767 32.29L13.7105 24.8405C13.6777 24.4491 13.7265 24.0551 13.8539 23.6835C13.9812 23.312 14.1842 22.9709 14.4502 22.6819C14.7162 22.3928 15.0392 22.1622 15.3989 22.0044C15.7586 21.8467 16.1472 21.7654 16.5399 21.7656C16.5399 20.8774 16.8927 20.0257 17.5208 19.3977C18.1488 18.7697 19.0005 18.4168 19.8887 18.4168H25.7944C26.4082 18.4168 26.9968 18.6607 27.4308 19.0947C27.8648 19.5287 28.1087 20.1174 28.1087 20.7312L28.1108 20.7326Z" fill="#BF7E68" stroke="#4C241D" stroke-linecap="round" stroke-linejoin="round"/>
<path d="M36.5828 7.82081C36.5864 7.37452 36.4683 6.93568 36.2413 6.55144C36.0142 6.1672 35.6868 5.85209 35.2941 5.63996C34.9014 5.42783 34.4584 5.3267 34.0125 5.34743C33.5667 5.36817 33.135 5.50999 32.7637 5.75765C32.5167 5.37356 32.192 5.04545 31.8105 4.79446C31.4291 4.54347 30.9992 4.37516 30.5488 4.30037C30.0983 4.22558 29.6371 4.24597 29.195 4.36022C28.7529 4.47448 28.3396 4.68007 27.9818 4.96375C27.7117 4.61065 27.3509 4.33748 26.9377 4.1734C26.5246 4.00931 26.0746 3.96046 25.6359 4.03205C25.1972 4.10365 24.7861 4.293 24.4466 4.57991C24.107 4.86682 23.8517 5.24053 23.7079 5.66116L23.6717 5.65336C23.2467 5.58278 22.8119 5.59661 22.3922 5.69407C21.9725 5.79152 21.5761 5.97068 21.2257 6.22133C20.5179 6.72753 20.0402 7.49416 19.8976 8.35257C19.8271 8.77761 19.8409 9.21239 19.9384 9.63208C20.0358 10.0518 20.215 10.4482 20.4656 10.7986C20.7163 11.1491 21.0335 11.4467 21.3992 11.6746C21.7648 11.9025 22.1718 12.0561 22.5969 12.1266C22.87 12.1713 23.1478 12.1809 23.4234 12.155L22.6018 17.1164L33.5278 18.9277L34.3515 13.9663C34.7626 14.1497 35.2072 14.2465 35.6574 14.2506C36.1076 14.2548 36.5538 14.1661 36.9682 13.9903C37.3827 13.8144 37.7565 13.5551 38.0664 13.2285C38.3762 12.9019 38.6155 12.5149 38.7693 12.0918C38.9231 11.6687 38.9881 11.2184 38.9603 10.769C38.9325 10.3197 38.8125 9.88087 38.6077 9.47993C38.4029 9.07898 38.1178 8.72451 37.77 8.43858C37.4222 8.15265 37.0193 7.94139 36.5863 7.81797L36.5828 7.82081Z" fill="white" stroke="#4C241D" stroke-linecap="round" stroke-linejoin="round"/>
<path d="M26.3081 15.0255L25.4851 20.7844C26.771 21.1609 28.1009 21.3661 29.4404 21.3945L30.2571 15.6818L26.3081 15.0255Z" fill="white" stroke="#4C241D" stroke-linecap="round" stroke-linejoin="round"/>
<path d="M23.0374 14.4814L22.2307 19.3363C23.2467 19.9604 24.3411 20.4468 25.4851 20.7829L26.3081 15.0241L23.0374 14.4814Z" fill="#9DC1E4" stroke="#4C241D" stroke-linecap="round" stroke-linejoin="round"/>
<path d="M30.2571 15.6804L29.4405 21.3931C30.6836 21.4274 31.9272 21.3462 33.1553 21.1505L33.962 16.2955L30.2571 15.6804Z" fill="#F53E28" stroke="#4C241D" stroke-linecap="round" stroke-linejoin="round"/>
<path d="M77.4659 23H75.7045C75.6004 22.4934 75.4181 22.0483 75.1577 21.6648C74.902 21.2812 74.5895 20.9593 74.2202 20.6989C73.8556 20.4337 73.4508 20.2348 73.0057 20.1023C72.5606 19.9697 72.0966 19.9034 71.6136 19.9034C70.733 19.9034 69.9351 20.1259 69.2202 20.571C68.5099 21.0161 67.9441 21.6719 67.5227 22.5384C67.1061 23.4048 66.8977 24.4678 66.8977 25.7273C66.8977 26.9867 67.1061 28.0497 67.5227 28.9162C67.9441 29.7827 68.5099 30.4384 69.2202 30.8835C69.9351 31.3286 70.733 31.5511 71.6136 31.5511C72.0966 31.5511 72.5606 31.4848 73.0057 31.3523C73.4508 31.2197 73.8556 31.0232 74.2202 30.7628C74.5895 30.4976 74.902 30.1733 75.1577 29.7898C75.4181 29.4015 75.6004 28.9564 75.7045 28.4545H77.4659C77.3333 29.1979 77.0919 29.8632 76.7415 30.4503C76.3911 31.0374 75.9555 31.5369 75.4347 31.9489C74.9138 32.3561 74.3291 32.6662 73.6804 32.8793C73.0365 33.0923 72.3475 33.1989 71.6136 33.1989C70.3731 33.1989 69.2699 32.8958 68.304 32.2898C67.3381 31.6837 66.5781 30.822 66.0241 29.7045C65.4702 28.5871 65.1932 27.2614 65.1932 25.7273C65.1932 24.1932 65.4702 22.8674 66.0241 21.75C66.5781 20.6326 67.3381 19.7708 68.304 19.1648C69.2699 18.5587 70.3731 18.2557 71.6136 18.2557C72.3475 18.2557 73.0365 18.3622 73.6804 18.5753C74.3291 18.7884 74.9138 19.1009 75.4347 19.5128C75.9555 19.92 76.3911 20.4171 76.7415 21.0043C77.0919 21.5866 77.3333 22.2519 77.4659 23ZM81.761 26.4375V33H80.0849V18.4545H81.761V23.7955H81.9031C82.1587 23.232 82.5423 22.7846 83.0536 22.4531C83.5697 22.117 84.2563 21.9489 85.1133 21.9489C85.8567 21.9489 86.5077 22.098 87.0664 22.3963C87.6251 22.6899 88.0584 23.142 88.3661 23.7528C88.6786 24.3589 88.8349 25.1307 88.8349 26.0682V33H87.1587V26.1818C87.1587 25.3153 86.9338 24.6454 86.484 24.1719C86.0389 23.6937 85.421 23.4545 84.6303 23.4545C84.0811 23.4545 83.5887 23.5705 83.1531 23.8026C82.7222 24.0346 82.3813 24.3731 82.1303 24.8182C81.8841 25.2633 81.761 25.803 81.761 26.4375ZM96.4751 33.2273C95.424 33.2273 94.5173 32.9953 93.755 32.5312C92.9974 32.0625 92.4126 31.4091 92.0007 30.571C91.5935 29.7282 91.3899 28.7481 91.3899 27.6307C91.3899 26.5133 91.5935 25.5284 92.0007 24.6761C92.4126 23.8191 92.9856 23.1515 93.7195 22.6733C94.4581 22.1903 95.3198 21.9489 96.3047 21.9489C96.8729 21.9489 97.4339 22.0436 97.9879 22.233C98.5419 22.4223 99.0462 22.7301 99.5007 23.1562C99.9553 23.5777 100.317 24.1364 100.587 24.8324C100.857 25.5284 100.992 26.3854 100.992 27.4034V28.1136H92.5831V26.6648H99.2876C99.2876 26.0492 99.1645 25.5 98.9183 25.017C98.6768 24.5341 98.3312 24.1529 97.8814 23.8736C97.4363 23.5942 96.9107 23.4545 96.3047 23.4545C95.6371 23.4545 95.0594 23.6203 94.5717 23.9517C94.0888 24.2784 93.7171 24.7045 93.4567 25.2301C93.1963 25.7557 93.0661 26.3191 93.0661 26.9205V27.8864C93.0661 28.7102 93.2081 29.4086 93.4922 29.9815C93.781 30.5497 94.1811 30.983 94.6925 31.2812C95.2038 31.5748 95.7981 31.7216 96.4751 31.7216C96.9155 31.7216 97.3132 31.66 97.6683 31.5369C98.0282 31.4091 98.3383 31.2197 98.5987 30.9688C98.8591 30.7131 99.0604 30.3958 99.2024 30.017L100.822 30.4716C100.651 31.0208 100.365 31.5038 99.9624 31.9205C99.5599 32.3324 99.0627 32.6544 98.4709 32.8864C97.879 33.1136 97.2138 33.2273 96.4751 33.2273ZM108.4 22.0909V23.5114H102.519V22.0909H108.4ZM104.281 33V20.5852C104.281 19.9602 104.427 19.4394 104.721 19.0227C105.014 18.6061 105.396 18.2936 105.864 18.0852C106.333 17.8769 106.828 17.7727 107.349 17.7727C107.761 17.7727 108.097 17.8059 108.357 17.8722C108.618 17.9384 108.812 18 108.94 18.0568L108.457 19.5057C108.371 19.4773 108.253 19.4418 108.102 19.3991C107.955 19.3565 107.761 19.3352 107.519 19.3352C106.965 19.3352 106.565 19.4749 106.319 19.7543C106.077 20.0336 105.957 20.4432 105.957 20.983V33H104.281ZM112.226 18.4545V19.733C112.226 20.1212 112.155 20.5355 112.013 20.9759C111.876 21.4115 111.672 21.8352 111.402 22.2472C111.137 22.6544 110.815 23.0095 110.436 23.3125L109.527 22.5739C109.826 22.1477 110.084 21.705 110.301 21.2457C110.524 20.7817 110.635 20.2869 110.635 19.7614V18.4545H112.226ZM120.625 24.5341L119.119 24.9602C119.024 24.7093 118.885 24.4654 118.7 24.2287C118.52 23.9872 118.274 23.7884 117.961 23.6321C117.649 23.4759 117.249 23.3977 116.761 23.3977C116.093 23.3977 115.537 23.5516 115.092 23.8594C114.652 24.1624 114.431 24.5483 114.431 25.017C114.431 25.4337 114.583 25.7628 114.886 26.0043C115.189 26.2457 115.663 26.447 116.306 26.608L117.926 27.0057C118.901 27.2424 119.628 27.6046 120.106 28.0923C120.584 28.5753 120.824 29.1979 120.824 29.9602C120.824 30.5852 120.644 31.1439 120.284 31.6364C119.929 32.1288 119.431 32.517 118.792 32.8011C118.153 33.0852 117.41 33.2273 116.562 33.2273C115.449 33.2273 114.529 32.9858 113.799 32.5028C113.07 32.0199 112.609 31.3144 112.414 30.3864L114.005 29.9886C114.157 30.5758 114.443 31.0161 114.865 31.3097C115.291 31.6032 115.847 31.75 116.534 31.75C117.315 31.75 117.935 31.5843 118.395 31.2528C118.859 30.9167 119.091 30.5142 119.091 30.0455C119.091 29.6667 118.958 29.3494 118.693 29.0938C118.428 28.8333 118.02 28.6392 117.471 28.5114L115.653 28.0852C114.654 27.8485 113.92 27.4815 113.451 26.9844C112.987 26.4825 112.755 25.8551 112.755 25.1023C112.755 24.4867 112.928 23.9422 113.274 23.4688C113.624 22.9953 114.1 22.6236 114.701 22.3537C115.307 22.0838 115.994 21.9489 116.761 21.9489C117.841 21.9489 118.688 22.1856 119.304 22.6591C119.924 23.1326 120.364 23.7576 120.625 24.5341Z" fill="white"/>
</svg>
